<svg xmlns="http://www.w3.org/2000/svg" viewBox="0 0 32 32">
  <defs>
    <linearGradient id="l" x1="0" y1="0" x2="0" y2="1">
      <stop offset="0" stop-color="#5b8cff"/>
      <stop offset="1" stop-color="#3f6ad6"/>
    </linearGradient>
    <linearGradient id="r" x1="0" y1="0" x2="0" y2="1">
      <stop offset="0" stop-color="#7c5bff"/>
      <stop offset="1" stop-color="#5b3fd6"/>
    </linearGradient>
  </defs>

  <!-- rounded dark background -->
  <rect x="0" y="0" width="32" height="32" rx="7" fill="#1a1d26"/>

  <!-- left image tile -->
  <rect x="4" y="8" width="11" height="16" rx="2" fill="url(#l)"/>
  <circle cx="8" cy="12.5" r="1.6" fill="#fff" opacity="0.9"/>
  <path d="M4 21 L8 16 L11 19 L13 17 L15 19 L15 24 L4 24 Z" fill="#fff" opacity="0.85"/>

  <!-- right image tile -->
  <rect x="17" y="8" width="11" height="16" rx="2" fill="url(#r)"/>
  <circle cx="24" cy="12.5" r="1.6" fill="#fff" opacity="0.9"/>
  <path d="M17 21 L20 17 L22 19 L25 15 L28 19 L28 24 L17 24 Z" fill="#fff" opacity="0.85"/>

  <!-- center seam -->
  <rect x="15" y="6" width="2" height="20" rx="1" fill="#e7e9ee"/>
</svg>
